<svg width="30" height="30" viewBox="0 0 30 30" fill="none" xmlns="http://www.w3.org/2000/svg">
<path d="M0 5.83333C0 3.08292 -8.69234e-08 1.70917 0.854583 0.854583C1.70917 -8.69234e-08 3.08292 0 5.83333 0C8.58375 0 9.9575 -8.69234e-08 10.8121 0.854583C11.6667 1.70917 11.6667 3.08292 11.6667 5.83333V23.3333C11.6667 26.0837 11.6667 27.4575 10.8121 28.3121C9.9575 29.1667 8.58375 29.1667 5.83333 29.1667C3.08292 29.1667 1.70917 29.1667 0.854583 28.3121C-8.69234e-08 27.4575 0 26.0837 0 23.3333V5.83333ZM17.5 5.83333C17.5 3.08292 17.5 1.70917 18.3546 0.854583C19.2092 -8.69234e-08 20.5829 0 23.3333 0C26.0837 0 27.4575 -8.69234e-08 28.3121 0.854583C29.1667 1.70917 29.1667 3.08292 29.1667 5.83333V23.3333C29.1667 26.0837 29.1667 27.4575 28.3121 28.3121C27.4575 29.1667 26.0837 29.1667 23.3333 29.1667C20.5829 29.1667 19.2092 29.1667 18.3546 28.3121C17.5 27.4575 17.5 26.0837 17.5 23.3333V5.83333Z" fill="#C12801"/>
</svg>
